<svg xmlns="http://www.w3.org/2000/svg" width="500" height="130" viewBox="0 0 500 130"><defs><style>.a{fill:#5d8432;}</style></defs><title>logo</title><path class="a" d="M41.9,92.8H18.2l-0.9-7.7q1.2-1.6,5.1-3.1V39.5q-3.8-1.4-5.1-3.2l0.9-7.7H38.9q15,0,23.7,8.4t8.8,24.6q0,16.2-7.9,23.7T41.9,92.8ZM35.8,82.7h6.7q7,0,11-4.2t4-16.4q0-23.2-17.6-23.2H35.8V82.7Z"/><path class="a" d="M77.6,46.3a43,43,0,0,1,9.7-1.2q4.5,0,7.5.3V82.5a12.5,12.5,0,0,1,5.1,3.2L99,92.8H77.6l-0.9-7.2q1.3-1.8,5.1-3.2V56.6a12,12,0,0,1-5.1-3.2Zm10.5-6.4q-7.8,0-7.8-7t7.8-7q7.8,0,7.8,7T88.1,39.9Z"/><path class="a" d="M104.5,46.3a43.6,43.6,0,0,1,9.2-1.1l6.8,0.2V50a18.3,18.3,0,0,1,6.2-3.2,23.8,23.8,0,0,1,7.4-1.3q9.1,0,12.8,4.3t3.7,14.8V82.5a12.5,12.5,0,0,1,5.1,3.2l-0.9,7.2H133.4l-0.9-7.2q1.3-1.8,5.1-3.2V64.1q0-5-1.6-6.7t-5.8-1.7a14.4,14.4,0,0,0-8.4,3V82.5a12.5,12.5,0,0,1,5.1,3.2l-0.9,7.2H104.5l-0.9-7.2q1.3-1.8,5.1-3.2V56.6a12,12,0,0,1-5.1-3.2Z"/><path class="a" d="M180.4,93.5q-11,0-16.3-5.9T158.8,70q0-11.9,5.9-18.1t17-6.3q11.1,0,16.4,5.6t5.3,17.4q0,11.9-6,18.4T180.4,93.5Zm-8.2-24.4q0,14.9,8.9,14.9a7.5,7.5,0,0,0,6.7-3.4q2.2-3.4,2.2-11.1,0-14.5-9.1-14.5a7.4,7.4,0,0,0-6.6,3.2Q172.2,61.5,172.2,69.2Z"/><path class="a" d="M226.8,53.9q-6.1,0-6.1,3.6t6.4,5.1l7.3,2q11.3,3,11.3,13.1a14.7,14.7,0,0,1-4.9,11.4q-4.9,4.4-15.5,4.4t-16.6-3-0.1-2a20.3,20.3,0,0,1,2-9.2h7.7A14.3,14.3,0,0,1,220,84a19.4,19.4,0,0,0,5.3.6q8.2,0,8.2-4.6a3.1,3.1,0,0,0-1.1-2.5,12.3,12.3,0,0,0-4.4-1.9l-7.3-2.1a19.9,19.9,0,0,1-8.8-4.7q-3.2-3.1-3.2-9.2a12.2,12.2,0,0,1,4.9-10q4.9-3.9,14.1-3.9a39.5,39.5,0,0,1,15.5,2.7c0.1,0.6.1,1.2,0.1,1.9a19.7,19.7,0,0,1-2,8.9h-7.6a13.2,13.2,0,0,1-1.6-4.5A21.5,21.5,0,0,0,226.8,53.9Z"/><path class="a" d="M269.4,34.9q0-7.1,7.9-7.1t7.9,7.1a22.3,22.3,0,0,1-3.2,11.6,27.1,27.1,0,0,1-7.6,8.5l-3.9-2.4a19.4,19.4,0,0,0,3.1-10,10.1,10.1,0,0,0-.1-1.4,5.5,5.5,0,0,1-2.9-2.3A6.9,6.9,0,0,1,269.4,34.9Z"/><path class="a" d="M341,47.4A15,15,0,0,1,337,58a25.3,25.3,0,0,1-9.9,6.5q4.6,2,6.1,4.7l6.8,12.9q4.4,1.5,5.9,3.4l-0.9,7.2H329.4L318.7,70q-1.5-3.4-3.4-3.4h-6V81.5q6.8,1.5,8.5,3.6l-0.9,7.7H291.6l-0.9-7.7q1.2-1.6,5.1-3.1V39.5q-3.8-1.4-5.1-3.2l0.9-7.7h23.7q13,0.2,19.3,4.2T341,47.4Zm-26.3-8.6h-5.5V56.4h5.3q6.3,0,9.4-1.9t3.1-6.8q0-4.9-3.2-6.9T314.7,38.8Z"/><path class="a" d="M349.3,34.9q0-7.1,7.9-7.1t7.9,7.1a22.3,22.3,0,0,1-3.2,11.6,27.1,27.1,0,0,1-7.6,8.5l-3.9-2.4a19.4,19.4,0,0,0,3.1-10,10.1,10.1,0,0,0-.1-1.4,5.5,5.5,0,0,1-2.9-2.3A6.9,6.9,0,0,1,349.3,34.9Z"/><path class="a" d="M433,87.6q-5.5,5.9-17.9,5.9t-17.3-5.8q-5-5.8-5-18.2v-30a12,12,0,0,1-5.1-3.2l0.9-7.7h21.7l0.9,7.7a12.5,12.5,0,0,1-5.1,3.2V69.9q0,6.7,2.2,9.9t7.9,3.2q5.7,0,8-3.3t2.3-9.8V39.5q-3.8-1.4-5.1-3.2l0.9-7.7h20.4l0.9,7.7a12.5,12.5,0,0,1-5.1,3.2v30Q438.5,81.7,433,87.6Z"/><path class="a" d="M464.8,53.9q-6.1,0-6.1,3.6t6.4,5.1l7.3,2q11.3,3,11.3,13.1a14.7,14.7,0,0,1-4.9,11.4q-4.9,4.4-15.5,4.4t-16.6-3-0.1-2a20.3,20.3,0,0,1,2-9.2h7.7A14.3,14.3,0,0,1,458,84a19.4,19.4,0,0,0,5.3.6q8.2,0,8.2-4.6a3.1,3.1,0,0,0-1.1-2.5,12.3,12.3,0,0,0-4.4-1.9l-7.3-2.1a19.9,19.9,0,0,1-8.8-4.7q-3.2-3.1-3.2-9.2a12.2,12.2,0,0,1,4.9-10q4.9-3.9,14.1-3.9a39.5,39.5,0,0,1,15.5,2.7c0.1,0.6.1,1.2,0.1,1.9a19.7,19.7,0,0,1-2,8.9h-7.6a13.2,13.2,0,0,1-1.6-4.5A21.5,21.5,0,0,0,464.8,53.9Z"/></svg>