<svg xmlns="http://www.w3.org/2000/svg" width="500" height="130" viewBox="0 0 500 130"><path fill="#5d8432" d="M41.9 92.8H18.2l-.9-7.7c.8-1.1 2.5-2.1 5.1-3.1V39.5c-2.6-.9-4.3-1.9-5.1-3.1l.9-7.7h20.7c10 0 17.9 2.7 23.8 8.3s8.8 13.8 8.8 24.6-2.7 18.7-8 23.7-12.5 7.5-21.6 7.5zm-6.1-10.1h6.7c4.6 0 8.3-1.4 11-4.3s4-8.3 4-16.4c0-15.5-5.8-23.2-17.6-23.2h-4.1zm41.8-36.4a43.5 43.5 0 0 1 9.7-1.2q4.4 0 7.5.3v37.1a13.1 13.1 0 0 1 5.1 3.1l-.9 7.2H77.6l-.9-7.2c.8-1.1 2.5-2.2 5.1-3.1V56.6a11.6 11.6 0 0 1-5.1-3.1zm10.5-6.4c-5.1 0-7.7-2.3-7.7-7s2.6-7 7.7-7 7.8 2.3 7.8 7-2.6 7-7.8 7zm16.4 6.4a46.7 46.7 0 0 1 9.2-1.1l6.8.2V50a20 20 0 0 1 6.2-3.2 24.8 24.8 0 0 1 7.4-1.2c6.1 0 10.3 1.4 12.8 4.3s3.7 7.7 3.7 14.7v17.9a13.1 13.1 0 0 1 5.1 3.1l-1 7.2h-21.3l-1-7.2a11.7 11.7 0 0 1 5.1-3.1V64.1c0-3.4-.5-5.6-1.6-6.8s-3-1.7-5.8-1.7a14.4 14.4 0 0 0-8.4 3v23.9a11.7 11.7 0 0 1 5.1 3.1l-.9 7.2h-21.4l-.9-7.2a11.7 11.7 0 0 1 5.1-3.1V56.6a12.3 12.3 0 0 1-5.1-3.1zm75.9 47.2c-7.3 0-12.8-1.9-16.3-5.8s-5.3-9.8-5.3-17.7 2-14 5.9-18.2 9.6-6.2 17-6.2 12.8 1.8 16.4 5.6 5.3 9.5 5.3 17.4-2 14-6 18.4-9.6 6.5-17 6.5zm-8.2-24.3c0 9.9 3 14.9 8.9 14.9a7.7 7.7 0 0 0 6.8-3.4c1.4-2.3 2.2-6 2.2-11.1 0-9.7-3.1-14.5-9.2-14.5a7.4 7.4 0 0 0-6.6 3.2c-1.4 2.1-2.1 5.7-2.1 10.9zm54.6-15.3c-4.1 0-6.2 1.2-6.2 3.7s2.2 4 6.4 5.1l7.4 1.9c7.5 2 11.3 6.4 11.3 13.1a14.4 14.4 0 0 1-4.9 11.4c-3.2 3-8.4 4.4-15.5 4.4s-12.6-1-16.6-2.9c0-.7-.1-1.4-.1-2.1a19.8 19.8 0 0 1 2.1-9.2h7.7A16.3 16.3 0 0 1 220 84a23 23 0 0 0 5.3.5c5.4 0 8.2-1.5 8.2-4.6a3.2 3.2 0 0 0-1.2-2.5 12.6 12.6 0 0 0-4.3-1.9l-7.4-2.1a21 21 0 0 1-8.8-4.7c-2.1-2.1-3.2-5.2-3.2-9.2a12.2 12.2 0 0 1 5-10c3.2-2.6 7.9-3.9 14-3.9s11.3.9 15.5 2.7a10.9 10.9 0 0 1 .1 1.8 20.8 20.8 0 0 1-2 9h-7.6a11.6 11.6 0 0 1-1.6-4.5 24 24 0 0 0-5.2-.7zm42.6-19c0-4.7 2.7-7.1 7.9-7.1s7.9 2.4 7.9 7.1a22.7 22.7 0 0 1-3.1 11.6 27.6 27.6 0 0 1-7.7 8.5l-3.9-2.5a18.8 18.8 0 0 0 3.1-10 6.1 6.1 0 0 0-.1-1.4 5.4 5.4 0 0 1-2.9-2.3 6.5 6.5 0 0 1-1.2-3.9zM341 47.4a14.7 14.7 0 0 1-4 10.6 24.5 24.5 0 0 1-9.9 6.5c3.1 1.3 5.2 2.9 6.2 4.8l6.8 12.9c2.9 1 4.9 2.1 5.9 3.4l-.9 7.2h-15.7L318.7 70c-1-2.3-2.1-3.4-3.5-3.4h-6v14.9c4.5.9 7.4 2.2 8.5 3.6l-1 7.7h-25.1l-.9-7.7c.8-1.1 2.5-2.1 5.1-3.1V39.5c-2.5-.9-4.2-1.9-5.1-3.1l.9-7.7h23.7c8.7.1 15.2 1.5 19.4 4.1s6.3 7.6 6.3 14.6zm-26.3-8.6h-5.5v17.6h5.3c4.2 0 7.4-.6 9.4-1.9s3.2-3.5 3.2-6.8-1.1-5.6-3.2-6.9-5.2-2-9.2-2zm34.6-3.9c0-4.7 2.6-7.1 7.9-7.1s7.9 2.4 7.9 7.1a22.8 22.8 0 0 1-3.2 11.6 27.3 27.3 0 0 1-7.6 8.5l-3.9-2.5a19.6 19.6 0 0 0 3-10v-1.4a5.6 5.6 0 0 1-3-2.3 7.1 7.1 0 0 1-1.1-3.9zM433 87.6c-3.7 4-9.7 5.9-17.9 5.9s-14-1.9-17.4-5.8-4.9-9.9-4.9-18.1V39.5a11.1 11.1 0 0 1-5.1-3.1l.9-7.7h21.7l1 7.7a11.9 11.9 0 0 1-5.2 3.1v30.4c0 4.5.8 7.8 2.2 9.9s4.1 3.2 7.9 3.2 6.4-1.1 8-3.3 2.3-5.4 2.3-9.8V39.5c-2.5-.9-4.2-1.9-5.1-3.1l.9-7.7h20.4l.9 7.7a12.1 12.1 0 0 1-5.1 3.1v30.1c0 8.1-1.8 14.1-5.5 18zm31.8-33.7c-4.1 0-6.1 1.2-6.1 3.7s2.1 4 6.4 5.1l7.3 1.9c7.6 2 11.4 6.4 11.4 13.1a14.7 14.7 0 0 1-4.9 11.4c-3.3 3-8.4 4.4-15.5 4.4s-12.7-1-16.6-2.9a14.8 14.8 0 0 1-.1-2.1 21.1 21.1 0 0 1 2-9.2h7.7A13.8 13.8 0 0 1 458 84a23.7 23.7 0 0 0 5.3.5c5.5 0 8.2-1.5 8.2-4.6a3.4 3.4 0 0 0-1.1-2.5 13.4 13.4 0 0 0-4.4-1.9l-7.3-2.1a21.4 21.4 0 0 1-8.9-4.7c-2.1-2.1-3.1-5.2-3.1-9.2a12.1 12.1 0 0 1 4.9-10q4.9-3.9 14.1-3.9a39.8 39.8 0 0 1 15.5 2.7c0 .6.1 1.2.1 1.8a19.5 19.5 0 0 1-2.1 9h-7.6a16.2 16.2 0 0 1-1.6-4.5 23.2 23.2 0 0 0-5.2-.7z"/></svg>